HIERARCHY
ROOT Hips
{
	OFFSET -0.001795 -0.223333 0.028219
	CHANNELS 6 Xposition Yposition Zposition Zrotation Yrotation Xrotation 
	JOINT LeftUpLeg
	{
		OFFSET 0.069520 -0.091406 -0.006815
		CHANNELS 3 Zrotation Yrotation Xrotation
		JOINT LeftLeg
		{
			OFFSET 0.034277 -0.375199 -0.004496
			CHANNELS 3 Zrotation Yrotation Xrotation
			JOINT LeftFoot
			{
				OFFSET -0.013596 -0.397961 -0.043693
				CHANNELS 3 Zrotation Yrotation Xrotation
				JOINT LeftToe
				{
					OFFSET 0.026358 -0.055791 0.119288
					CHANNELS 3 Zrotation Yrotation Xrotation
					End Site
					{
						OFFSET 0.000000 0.000000 0.000000
					}
				}
			}
		}
	}
	JOINT RightUpLeg
	{
		OFFSET -0.067670 -0.090522 -0.004320
		CHANNELS 3 Zrotation Yrotation Xrotation
		JOINT RightLeg
		{
			OFFSET -0.038290 -0.382569 -0.008850
			CHANNELS 3 Zrotation Yrotation Xrotation
			JOINT RightFoot
			{
				OFFSET 0.015774 -0.398415 -0.042312
				CHANNELS 3 Zrotation Yrotation Xrotation
				JOINT RightToe
				{
					OFFSET -0.025372 -0.048144 0.123348
					CHANNELS 3 Zrotation Yrotation Xrotation
					End Site
					{
						OFFSET 0.000000 0.000000 0.000000
					}
				}
			}
		}
	}
	JOINT Spine
	{
		OFFSET -0.002533 0.108963 -0.026696
		CHANNELS 3 Zrotation Yrotation Xrotation
		JOINT Spine1
		{
			OFFSET 0.005487 0.135180 0.001092
			CHANNELS 3 Zrotation Yrotation Xrotation
			JOINT Spine2
			{
				OFFSET 0.001457 0.052922 0.025425
				CHANNELS 3 Zrotation Yrotation Xrotation
				JOINT Neck
				{
					OFFSET -0.002778 0.213870 -0.042857
					CHANNELS 3 Zrotation Yrotation Xrotation
					JOINT Head
					{
						OFFSET 0.005152 0.064970 0.051349
						CHANNELS 3 Zrotation Yrotation Xrotation
						End Site
						{
							OFFSET 0.000000 0.000000 0.000000
						}
					}
				}
				JOINT LeftShoulder
				{
					OFFSET 0.078845 0.121749 -0.034090
					CHANNELS 3 Zrotation Yrotation Xrotation
					JOINT LeftArm
					{
						OFFSET 0.090977 0.030469 -0.008868
						CHANNELS 3 Zrotation Yrotation Xrotation
						JOINT LeftForeArm
						{
							OFFSET 0.259612 -0.012772 -0.027456
							CHANNELS 3 Zrotation Yrotation Xrotation
							JOINT LeftHand
							{
								OFFSET 0.249234 0.008986 -0.001171
								CHANNELS 3 Zrotation Yrotation Xrotation
								End Site
								{
									OFFSET 0.000000 0.000000 0.000000
								}
							}
						}
					}
				}
				JOINT RightShoulder
				{
					OFFSET -0.081759 0.118833 -0.038615
					CHANNELS 3 Zrotation Yrotation Xrotation
					JOINT RightArm
					{
						OFFSET -0.096012 0.032551 -0.009143
						CHANNELS 3 Zrotation Yrotation Xrotation
						JOINT RightForeArm
						{
							OFFSET -0.253742 -0.013329 -0.021401
							CHANNELS 3 Zrotation Yrotation Xrotation
							JOINT RightHand
							{
								OFFSET -0.255298 0.007772 -0.005559
								CHANNELS 3 Zrotation Yrotation Xrotation
								End Site
								{
									OFFSET 0.000000 0.000000 0.000000
								}
							}
						}
					}
				}
			}
		}
	}
}
MOTION
Frames: 13
Frame Time: 0.050000
0.046337 0.961268 3.035428 177.658264 34.103288 -178.587703 -1.684714 -1.125465 -5.313580 0.274871 -3.337114 0.360316 0.457260 -12.135333 15.977413 0.000000 0.000000 0.000000 -2.316806 -11.280179 -14.519963 -10.195162 -9.395807 17.910640 36.308666 3.568369 2.751602 0.000000 0.000000 0.000000 2.469757 -0.411854 2.436811 -10.177369 -3.570349 -18.405057 3.736079 16.777826 29.816033 10.108544 -4.744622 -25.564666 0.000000 0.000000 0.000000 9.299183 -31.674234 -38.449819 -57.066245 22.485729 -31.246339 -32.418162 -18.461315 -4.677459 0.000000 0.000000 0.000000 8.930176 -15.565556 46.896560 74.788778 61.875299 63.841234 -27.010771 9.358228 -3.706258 0.000000 0.000000 0.000000 
0.054269 0.962385 3.043120 177.409249 32.346151 -177.314781 -2.102584 -1.099718 -6.823889 1.144487 -3.201284 0.176196 5.091830 -13.586108 15.211491 0.000000 0.000000 0.000000 -1.837195 -10.785856 -14.084250 -8.075869 -7.872690 14.429478 35.476815 0.986823 2.118253 0.000000 0.000000 0.000000 2.519435 -0.432190 2.190213 -10.062082 -3.639995 -18.659685 3.884070 17.304209 28.609562 10.240636 -6.286381 -25.034806 0.000000 0.000000 0.000000 10.648115 -33.218557 -41.291293 -57.638752 25.129211 -33.955154 -34.214306 -16.298866 -5.287911 0.000000 0.000000 0.000000 7.922763 -16.172370 51.394533 75.869461 67.901715 71.519237 -29.402419 7.180799 -3.479847 0.000000 0.000000 0.000000 
0.063328 0.962731 3.049752 177.300028 30.939208 -176.745707 -1.824200 -1.244846 -7.374269 0.695336 -3.522831 0.026737 12.728748 -14.426652 14.286494 0.000000 0.000000 0.000000 -1.215171 -9.572167 -12.757346 -6.313464 -6.951935 11.644668 33.821972 -1.493322 -0.094222 0.000000 0.000000 0.000000 2.810715 -0.463327 2.116478 -9.962584 -3.809973 -18.547187 4.299052 17.770905 27.582838 10.699739 -7.226928 -24.898631 0.000000 0.000000 0.000000 11.832947 -34.260008 -44.199971 -57.920486 27.605988 -36.125589 -35.370352 -14.353204 -5.867279 0.000000 0.000000 0.000000 6.502038 -16.363965 55.490742 75.031335 73.290898 77.140182 -31.904672 4.858262 -3.003915 0.000000 0.000000 0.000000 
0.073196 0.962855 3.055079 177.457889 30.316794 -176.150820 -1.212871 -1.462968 -7.962172 0.406445 -3.619331 0.853847 20.600290 -15.170983 13.141205 0.000000 0.000000 0.000000 -0.832174 -8.837494 -11.944821 -4.299522 -6.932577 9.888886 32.214333 -2.686164 -1.293660 0.000000 0.000000 0.000000 3.462878 -0.511945 2.088032 -9.997803 -3.796692 -18.800474 4.705963 18.391441 26.982308 11.014580 -8.388192 -24.205203 0.000000 0.000000 0.000000 12.739462 -35.471100 -45.888031 -59.009921 29.811034 -38.794891 -36.377456 -12.772827 -6.370195 0.000000 0.000000 0.000000 4.872571 -16.307110 58.407637 78.577215 77.642792 86.990612 -34.399746 3.544918 -2.863893 0.000000 0.000000 0.000000 
0.083135 0.962787 3.059136 177.312361 29.084903 -176.424146 -0.481671 -1.740496 -8.479992 -0.869422 -4.172113 2.476304 28.444048 -15.915228 13.464605 0.000000 0.000000 0.000000 -0.826328 -8.134084 -10.186440 -3.071153 -6.652678 8.006309 31.337274 -4.601966 -2.779667 0.000000 0.000000 0.000000 3.779866 -0.510767 2.814823 -9.461309 -3.542409 -19.561453 4.772423 17.821615 26.780912 10.660183 -9.714350 -23.606638 0.000000 0.000000 0.000000 13.176219 -35.832955 -48.991604 -58.148768 33.847931 -39.967128 -39.370042 -11.312238 -7.285831 0.000000 0.000000 0.000000 3.946724 -16.350532 62.109361 80.769437 82.684553 94.645347 -36.262998 2.235287 -2.570539 0.000000 0.000000 0.000000 
0.092464 0.962354 3.062181 177.820152 28.154904 -176.119748 1.363269 -2.460537 -9.424202 -2.948994 -5.125077 4.881484 37.068364 -16.632390 15.457480 0.000000 0.000000 0.000000 -0.602530 -7.498874 -8.967446 -0.952836 -7.086449 6.240822 27.496320 -6.716128 -2.685265 0.000000 0.000000 0.000000 4.559113 -0.590910 3.366629 -9.105632 -3.337202 -20.049825 4.976963 17.837203 26.506640 10.345266 -11.561299 -22.400259 0.000000 0.000000 0.000000 14.500964 -36.133858 -50.477136 -59.214799 36.456322 -43.546354 -41.647172 -10.436777 -8.346641 0.000000 0.000000 0.000000 2.961595 -16.438222 65.604291 81.399139 87.221912 100.529985 -36.768664 2.661478 -2.792424 0.000000 0.000000 0.000000 
0.100827 0.962424 3.064220 177.734286 27.084973 -176.667720 2.632651 -3.299329 -12.030028 -6.562349 -7.348400 10.271781 45.686610 -17.912134 20.224225 0.000000 0.000000 0.000000 -0.806958 -6.858014 -6.270951 0.653376 -6.728695 3.333298 26.340910 -8.889427 -3.850018 0.000000 0.000000 0.000000 4.902810 -0.655393 4.388551 -9.128479 -3.441835 -20.390837 5.824042 17.939411 26.621310 10.746033 -11.628274 -23.155643 0.000000 0.000000 0.000000 15.795145 -36.446300 -53.151576 -58.935873 39.325417 -45.771718 -45.444751 -7.875551 -10.182811 0.000000 0.000000 0.000000 1.545683 -16.822122 69.845364 -95.857710 88.257528 -71.305101 -37.867270 1.435213 -2.327474 0.000000 0.000000 0.000000 
0.107654 0.961727 3.065246 177.655075 25.982276 -176.188996 4.087226 -5.157470 -16.958210 -12.075106 -11.001619 16.689980 53.173464 -20.950188 29.106978 0.000000 0.000000 0.000000 -1.034408 -6.758447 -4.994143 2.094142 -7.115099 1.763194 24.247031 -10.652608 -4.107063 0.000000 0.000000 0.000000 5.153129 -0.712288 4.703317 -8.296876 -2.977460 -20.958622 5.675928 17.794263 26.562554 10.131034 -13.669097 -22.114614 0.000000 0.000000 0.000000 17.732580 -35.790788 -55.676327 -60.200482 41.564411 -50.435857 -47.771940 -3.881406 -12.499847 0.000000 0.000000 0.000000 -0.740107 -16.807487 74.622987 -110.492710 83.600888 -78.646630 -37.927411 -1.782381 -1.490645 0.000000 0.000000 0.000000 
0.113141 0.959876 3.064517 177.001145 26.155606 -175.875686 6.128017 -7.766297 -21.785799 -22.431175 -16.217628 21.946715 56.665679 -26.361159 45.570305 0.000000 0.000000 0.000000 -1.506316 -7.046012 -4.440674 2.420287 -7.431316 1.787753 24.278049 -10.789576 -6.566596 0.000000 0.000000 0.000000 4.680001 -0.652297 5.128189 -8.596679 -3.094748 -21.745565 7.298167 18.887720 27.238214 9.875372 -12.199494 -24.560745 0.000000 0.000000 0.000000 18.840695 -36.053523 -61.619105 -57.515424 47.692932 -50.822176 -50.502633 -1.640154 -14.386275 0.000000 0.000000 0.000000 -2.780450 -17.279295 79.876629 -106.988631 78.951476 -68.645050 -37.776610 -5.407145 -0.329869 0.000000 0.000000 0.000000 
0.118405 0.958169 3.061062 176.584235 25.130337 -176.289672 8.712439 -10.803187 -26.135336 -33.270385 -21.019697 26.719435 53.387196 -28.564944 60.349944 0.000000 0.000000 0.000000 -1.505871 -7.119493 -3.880609 2.580295 -8.363724 2.634764 24.579087 -11.562233 -9.526227 0.000000 0.000000 0.000000 4.504745 -0.768875 6.891811 -7.783158 -2.488130 -23.486567 7.069678 18.861549 27.897843 8.395169 -14.430931 -24.099383 0.000000 0.000000 0.000000 20.689549 -34.552155 -68.995074 -57.082406 54.425093 -55.142968 -52.025015 4.253822 -17.368130 0.000000 0.000000 0.000000 -4.263221 -17.668960 87.429940 -108.772872 71.742390 -62.922643 -35.642006 -10.365332 0.576445 0.000000 0.000000 0.000000 
0.123977 0.956482 3.053997 176.620666 24.231083 -176.737593 9.876419 -12.790217 -29.025311 -35.725353 -22.328327 25.838699 48.659761 -37.853207 71.983574 0.000000 0.000000 0.000000 -1.338124 -6.784624 -1.738194 2.463816 -8.454855 2.331393 25.471880 -12.666525 -10.658140 0.000000 0.000000 0.000000 5.141099 -0.985331 7.499824 -8.133181 -3.086860 -21.450822 7.117631 20.085879 26.069130 8.797036 -13.783600 -24.945723 0.000000 0.000000 0.000000 21.848331 -33.460653 -71.654535 -55.277012 58.580035 -56.749224 -54.350429 6.864960 -20.084568 0.000000 0.000000 0.000000 -6.317421 -16.928304 90.015587 -110.728855 70.481450 -61.036640 -34.815440 -13.163374 1.029012 0.000000 0.000000 0.000000 
0.130628 0.953833 3.042883 177.119653 24.018118 -176.471049 11.623099 -14.395354 -31.072295 -33.090468 -21.668326 20.664334 44.336103 -44.593715 77.195109 0.000000 0.000000 0.000000 -1.027196 -6.430874 0.778780 2.634555 -7.831081 0.555398 23.528235 -15.056875 -9.679268 0.000000 0.000000 0.000000 6.090602 -1.198338 7.322211 -8.519295 -3.053554 -22.228132 8.408122 20.973163 27.287340 8.791983 -14.692663 -24.927315 0.000000 0.000000 0.000000 23.772764 -33.319523 -76.254896 -52.785539 64.797893 -59.832678 -56.367527 11.450500 -24.044294 0.000000 0.000000 0.000000 -8.840536 -17.741513 94.667873 -112.001257 67.196629 -54.779116 -34.007065 -18.463891 2.425309 0.000000 0.000000 0.000000 
0.138166 0.950377 3.027519 176.566964 25.364404 -176.138828 11.186886 -14.329402 -31.317856 -24.932872 -17.934789 13.367905 48.921120 -47.603060 69.081244 0.000000 0.000000 0.000000 -1.870547 -6.892785 0.725521 2.488659 -7.750285 1.088280 23.576598 -13.924737 -9.308082 0.000000 0.000000 0.000000 5.759437 -0.957955 6.264424 -8.649273 -2.886432 -22.433673 8.131306 22.676001 27.668723 8.196553 -17.416685 -22.596188 0.000000 0.000000 0.000000 24.733166 -32.949596 -74.115946 -56.724840 64.175711 -65.791359 -56.130097 11.002691 -24.426872 0.000000 0.000000 0.000000 -10.243064 -17.159372 96.540706 -115.263737 66.230034 -54.918591 -33.742803 -20.881275 2.663101 0.000000 0.000000 0.000000 
